<?xml version="1.0" standalone="no"?>
<!DOCTYPE svg PUBLIC "-//W3C//DTD SVG 20010904//EN"
 "http://www.w3.org/TR/2001/REC-SVG-20010904/DTD/svg10.dtd">
<svg version="1.0" xmlns="http://www.w3.org/2000/svg"
 width="517.000000pt" height="338.000000pt" viewBox="0 0 517.000000 338.000000"
 preserveAspectRatio="xMidYMid meet">

<g transform="translate(0.000000,338.000000) scale(0.100000,-0.100000)"
fill="#000000" stroke="none">
<path d="M2450 3321 c-8 -4 -44 -11 -80 -14 -125 -11 -220 -35 -420 -106 l-85
-31 -351 0 -352 0 -47 -127 c-26 -71 -96 -265 -156 -433 -59 -168 -138 -384
-174 -480 -35 -96 -65 -180 -65 -186 0 -6 -44 -127 -99 -270 -54 -142 -133
-360 -176 -484 -55 -160 -84 -230 -100 -242 -15 -12 -34 -53 -55 -120 -18 -57
-36 -107 -41 -113 -4 -5 -58 -147 -119 -314 -90 -242 -110 -305 -99 -312 18
-11 5080 -11 5098 0 11 7 -9 70 -99 312 -61 167 -115 309 -119 314 -5 6 -23
56 -41 113 -21 67 -40 108 -55 120 -16 12 -45 82 -100 242 -43 124 -122 342
-176 484 -55 143 -99 264 -99 270 0 6 -30 90 -65 186 -36 96 -115 312 -174
480 -60 168 -130 362 -156 433 l-47 127 -352 0 -351 0 -85 31 c-194 69 -263
87 -430 110 -101 15 -311 21 -330 10z m-1133 -195 c4 -3 1 -12 -5 -18 -7 -7
-12 -20 -12 -30 0 -10 -4 -18 -8 -18 -12 0 -73 65 -67 72 7 7 84 3 92 -6z
m446 4 c3 -3 -25 -27 -60 -54 l-66 -48 8 38 c11 63 19 70 69 69 24 0 47 -3 49
-5z m1744 -30 c24 -71 17 -74 -51 -23 -35 27 -62 50 -60 54 1 3 24 5 51 4 46
0 49 -2 60 -35z m432 31 c8 -2 -62 -71 -71 -71 -4 0 -8 8 -8 18 0 10 -6 24
-12 30 -10 10 -10 14 0 21 10 6 69 7 91 2z m-2590 -230 c33 -38 51 -68 51 -85
l0 -26 -170 0 c-93 0 -170 3 -170 6 0 4 12 42 27 85 l27 79 92 0 92 0 51 -59z
m2724 -20 c15 -43 27 -81 27 -85 0 -3 -76 -6 -170 -6 l-170 0 0 26 c0 17 18
47 51 85 l51 59 92 0 92 0 27 -79z m-2603 -76 c0 -2 -9 -27 -20 -54 -18 -47
-19 -78 -20 -545 -1 -272 -5 -508 -10 -523 -5 -15 -23 -89 -41 -163 -18 -74
-43 -164 -55 -200 -21 -60 -45 -143 -75 -260 -7 -25 -17 -57 -23 -72 l-11 -28
-126 0 -127 0 8 33 c12 48 35 138 69 262 16 61 41 155 56 210 14 54 35 131 45
170 17 65 52 195 85 320 7 28 25 95 40 150 57 212 49 181 113 425 17 63 40
149 51 190 11 41 21 78 21 83 0 7 20 10 20 2z m2240 -2 c0 -5 10 -42 21 -83
18 -68 58 -218 96 -360 8 -30 20 -77 28 -105 22 -83 66 -247 80 -300 33 -125
68 -255 85 -320 10 -39 31 -116 45 -170 15 -55 40 -149 56 -210 34 -124 57
-214 69 -262 l8 -33 -127 0 -126 0 -11 28 c-6 15 -16 47 -23 72 -30 117 -54
200 -75 260 -12 36 -37 126 -55 200 -18 74 -36 148 -41 163 -5 15 -9 251 -10
523 -1 467 -2 498 -20 545 -11 27 -20 52 -20 54 0 8 20 5 20 -2z m-2410 -360
c0 -14 -48 -182 -55 -193 -6 -10 -367 -15 -377 -5 -5 5 54 174 68 197 7 10
364 10 364 1z m2961 -95 c20 -53 34 -100 31 -103 -10 -10 -371 -5 -377 5 -7
11 -55 179 -55 193 0 4 82 6 182 5 l182 -3 37 -97z m-3131 -527 c0 -5 -6 -31
-14 -57 -8 -27 -22 -78 -31 -114 -32 -123 -3 -110 -250 -110 -118 0 -215 3
-215 8 0 8 69 208 88 255 l12 27 205 0 c113 0 205 -4 205 -9z m3322 -18 c19
-47 88 -247 88 -255 0 -5 -97 -8 -215 -8 -247 0 -218 -13 -250 110 -9 36 -23
87 -31 114 -8 26 -14 52 -14 57 0 5 92 9 205 9 l205 0 12 -27z m-3552 -828 c0
-8 -7 -15 -15 -15 -8 0 -15 -6 -15 -13 0 -12 -53 -66 -252 -254 l-66 -63 -141
0 c-106 0 -141 3 -141 13 0 6 16 57 36 112 20 55 43 119 51 143 8 23 24 47 34
53 10 5 19 16 19 24 0 13 37 15 245 15 211 0 245 -2 245 -15z m3850 0 c0 -8 9
-19 19 -24 10 -6 26 -30 34 -53 8 -24 31 -88 51 -143 20 -55 36 -106 36 -112
0 -10 -35 -13 -141 -13 l-141 0 -66 63 c-199 188 -252 242 -252 254 0 7 -7 13
-15 13 -8 0 -15 7 -15 15 0 13 34 15 245 15 208 0 245 -2 245 -15z m-3315 -97
c3 -3 1 -37 -5 -74 -6 -38 -15 -94 -19 -124 -10 -62 -68 -305 -122 -512 l-10
-38 -195 0 -195 0 6 38 c4 20 12 55 19 77 8 22 21 67 30 100 26 95 36 127 51
165 23 60 115 354 115 369 0 11 29 13 160 9 87 -2 162 -6 165 -10z m2615 0 c0
-14 93 -311 115 -368 15 -38 25 -70 51 -165 9 -33 22 -78 30 -100 7 -22 15
-57 19 -77 l6 -38 -195 0 -195 0 -10 38 c-66 250 -121 489 -121 522 0 17 -4
39 -9 48 -4 9 -11 45 -15 79 l-7 62 33 4 c18 2 93 5 166 5 100 2 132 -1 132
-10z m-1745 -100 c-3 -57 -7 -173 -11 -258 -3 -85 -7 -175 -9 -200 -2 -25 -3
-75 -4 -112 l-1 -68 -185 0 -186 0 6 58 c3 31 10 104 16 162 6 58 15 146 19
195 13 143 31 299 35 313 3 9 45 12 164 12 l160 0 -4 -102z m870 90 c4 -14 22
-170 35 -313 4 -49 13 -137 19 -195 6 -58 13 -131 16 -162 l6 -58 -186 0 -185
0 -1 68 c-1 37 -2 87 -4 112 -2 25 -6 115 -9 200 -4 85 -8 201 -11 258 l-4
102 160 0 c119 0 161 -3 164 -12z m-2759 -520 c-35 -112 -48 -154 -58 -180
l-10 -28 -104 0 -104 0 78 74 c142 135 207 194 211 191 1 -2 -4 -28 -13 -57z
m4495 -105 c41 -40 84 -80 95 -88 17 -13 8 -14 -87 -15 l-107 0 -10 28 c-6 15
-17 50 -26 77 -8 28 -22 72 -31 99 -8 27 -15 54 -15 59 0 10 54 -37 181 -160z"/>
</g>
</svg>
