<?xml version="1.0" standalone="no"?>
<!DOCTYPE svg PUBLIC "-//W3C//DTD SVG 20010904//EN"
 "http://www.w3.org/TR/2001/REC-SVG-20010904/DTD/svg10.dtd">
<svg version="1.0" xmlns="http://www.w3.org/2000/svg"
 width="517.000000pt" height="338.000000pt" viewBox="0 0 517.000000 338.000000"
 preserveAspectRatio="xMidYMid meet">

<g transform="translate(0.000000,338.000000) scale(0.100000,-0.100000)"
fill="#000000" stroke="none">
<path d="M2450 3321 c-8 -4 -44 -11 -80 -14 -125 -11 -220 -35 -420 -106 l-85
-31 -351 0 -352 0 -47 -127 c-26 -71 -96 -265 -156 -433 -59 -168 -138 -384
-174 -480 -35 -96 -65 -180 -65 -187 0 -6 -45 -128 -100 -272 -54 -143 -133
-360 -176 -483 -55 -160 -82 -227 -99 -240 -15 -12 -34 -52 -55 -120 -18 -57
-36 -107 -41 -113 -4 -5 -57 -147 -119 -314 -88 -239 -109 -305 -98 -312 17
-11 5079 -11 5096 0 11 7 -10 73 -98 312 -62 167 -115 309 -119 314 -5 6 -23
56 -41 113 -21 68 -40 108 -55 120 -17 13 -44 80 -99 240 -43 123 -122 340
-176 483 -55 144 -100 266 -100 272 0 7 -30 91 -65 187 -36 96 -115 312 -174
480 -60 168 -130 362 -156 433 l-47 127 -352 0 -351 0 -85 31 c-194 69 -263
87 -430 110 -101 15 -311 21 -330 10z m-1130 -187 c0 -18 -24 -84 -31 -84 -8
0 -69 74 -69 84 0 3 23 6 50 6 28 0 50 -3 50 -6z m450 -3 c0 -5 -24 -26 -52
-48 -86 -62 -82 -62 -73 -7 4 27 9 52 12 57 6 10 113 9 113 -2z m1742 -36 c14
-66 7 -69 -59 -19 -35 26 -63 51 -63 56 0 5 26 8 57 6 l57 -3 8 -40z m428 39
c0 -10 -61 -84 -69 -84 -7 0 -31 66 -31 84 0 3 23 6 50 6 28 0 50 -3 50 -6z
m-2645 -172 c6 -4 34 -34 63 -68 47 -55 52 -64 43 -88 l-11 -26 -170 0 c-93 0
-170 2 -170 4 0 3 27 76 59 159 10 26 12 27 93 27 46 0 88 -4 93 -8z m2776
-72 c16 -41 32 -83 35 -92 5 -17 -7 -18 -166 -18 l-170 0 -11 26 c-9 24 -4 33
43 88 29 34 57 64 63 69 5 4 48 6 94 5 l84 -3 28 -75z m-2591 -77 c0 -5 -10
-33 -23 -63 -22 -54 -22 -65 -28 -580 l-5 -525 -32 -120 c-17 -66 -56 -201
-87 -299 -30 -98 -60 -199 -66 -222 l-11 -44 -135 0 -135 0 7 33 c4 17 26 104
50 192 69 259 105 391 126 471 21 81 47 181 80 302 11 42 27 100 34 127 66
254 156 592 181 683 9 32 20 52 29 52 8 0 15 -3 15 -7z m2244 -45 c25 -91 115
-429 181 -683 7 -27 23 -85 34 -127 33 -121 59 -221 80 -302 21 -80 57 -212
126 -471 24 -88 46 -175 50 -192 l7 -33 -135 0 -135 0 -11 44 c-6 23 -36 124
-66 222 -31 98 -70 233 -87 299 l-32 120 -5 525 c-6 515 -6 526 -28 580 -27
65 -28 70 -8 70 9 0 20 -20 29 -52z m-2424 -331 c0 -7 -6 -36 -14 -63 -8 -27
-20 -68 -26 -91 l-11 -43 -194 0 c-107 0 -195 1 -195 3 0 2 16 47 35 101 19
54 35 100 35 102 0 2 83 4 185 4 146 0 185 -3 185 -13z m2930 9 c0 -2 16 -48
35 -102 19 -54 35 -99 35 -101 0 -2 -88 -3 -195 -3 l-194 0 -11 43 c-6 23 -18
64 -26 91 -23 81 -35 76 171 76 102 0 185 -2 185 -4z m-3100 -626 c0 -9 -43
-179 -53 -210 -3 -8 -8 -27 -11 -42 l-6 -28 -226 0 c-211 0 -226 1 -219 18 10
24 95 265 95 269 0 2 94 3 210 3 132 0 210 -4 210 -10z m3320 7 c0 -4 85 -245
95 -269 7 -17 -8 -18 -219 -18 l-226 0 -6 28 c-3 15 -8 34 -11 42 -10 31 -53
201 -53 210 0 6 78 10 210 10 116 0 210 -1 210 -3z m-3550 -852 c0 -8 -5 -15
-10 -15 -6 0 -14 -8 -17 -17 -6 -16 -112 -120 -265 -261 l-67 -62 -135 0 c-74
0 -137 4 -140 8 -4 7 14 64 77 241 25 69 39 90 60 91 4 0 7 7 7 15 0 13 34 15
245 15 211 0 245 -2 245 -15z m3850 0 c0 -8 3 -15 8 -15 20 -1 34 -22 59 -91
63 -177 81 -234 77 -241 -3 -4 -66 -8 -140 -8 l-135 0 -67 62 c-154 141 -262
248 -262 258 0 6 -7 13 -15 16 -8 4 -15 12 -15 20 0 12 42 14 245 14 211 0
245 -2 245 -15z m-3310 -101 c6 -6 6 -23 1 -44 -5 -19 -14 -66 -21 -105 -11
-63 -32 -157 -92 -405 -11 -47 -22 -98 -25 -114 -3 -16 -9 -40 -14 -53 l-9
-23 -200 0 -200 0 9 23 c7 19 24 84 36 137 7 33 59 195 120 379 36 107 65 201
65 209 0 12 25 14 160 10 88 -2 164 -8 170 -14z m2610 3 c0 -8 29 -101 65
-208 61 -184 113 -346 120 -379 12 -53 29 -118 36 -137 l9 -23 -200 0 -200 0
-9 23 c-5 13 -11 37 -14 53 -3 16 -14 67 -25 114 -60 248 -72 301 -86 370 -18
91 -30 161 -31 175 0 15 58 22 203 24 104 1 132 -2 132 -12z m-1739 -14 c1
-10 1 -22 0 -27 -3 -15 -21 -488 -22 -561 0 -38 -3 -85 -6 -102 l-5 -33 -184
0 -184 0 0 23 c1 45 57 624 66 680 l6 37 164 0 c149 0 164 -2 165 -17z m873
-20 c9 -56 65 -635 66 -680 l0 -23 -184 0 -184 0 -5 32 c-3 18 -6 65 -6 103
-1 73 -19 546 -22 561 -8 44 -7 44 165 44 l164 0 6 -37z m-2754 -447 c0 -7 -8
-40 -18 -72 -11 -33 -27 -87 -37 -121 l-19 -63 -110 0 -110 0 139 134 c77 74
143 135 148 135 4 1 7 -5 7 -13z m4456 -123 l138 -133 -110 0 -110 0 -19 63
c-10 34 -26 88 -37 121 -20 64 -23 89 -9 84 4 -1 70 -63 147 -135z"/>
</g>
</svg>
